<?xml version="1.0" encoding="UTF-8"?>
<svg width="31px" height="30px" viewBox="0 0 31 30" version="1.1" xmlns="http://www.w3.org/2000/svg" xmlns:xlink="http://www.w3.org/1999/xlink">
    <!-- Generator: Sketch 58 (84663) - https://sketch.com -->
    <title>Icons / Search Copy</title>
    <desc>Created with Sketch.</desc>
    <defs>
        <path d="M29.8636063,26.8577077 L23.6008563,20.5949577 C23.5558118,20.5499132 23.5040963,20.5165495 23.4557163,20.4765104 C27.0892558,15.4181354 26.6455163,8.33794792 22.0977194,3.79036458 C19.5702402,1.26288542 16.2569277,0 12.9453236,0 C9.63209647,0 6.32040689,1.26288542 3.79121939,3.79036458 C-1.2637398,8.84532292 -1.2637398,17.0414792 3.79121939,22.0964375 C6.31869856,24.6239167 9.63201106,25.8868021 12.9453236,25.8868021 C15.8114371,25.8868021 18.6742194,24.9358583 21.0317194,23.0457156 C21.0500712,23.065733 21.0650831,23.0890902 21.0851048,23.1091119 L27.3478548,29.3718619 C27.6931901,29.7222026 28.1486361,29.8957223 28.6040777,29.8957223 C29.0595194,29.8957223 29.5149611,29.7222197 29.8619663,29.3751931 C30.5576423,28.6795171 30.5576423,27.5517608 29.8636319,26.8577504 L29.8636063,26.8577077 Z M12.9455542,22.3297702 C10.4381052,22.3297702 8.08235627,21.3537994 6.30910627,19.5804212 C2.6505396,15.9218546 2.6505396,9.96592125 6.30910627,6.30752542 C8.08081877,4.53581292 10.4398136,3.55817646 12.9455542,3.55817646 C15.4530031,3.55817646 17.8087521,4.53414729 19.5820021,6.30752542 C23.2405688,9.96609208 23.2405688,15.9220254 19.5820021,19.5804212 C17.808624,21.3537994 15.4512948,22.3297702 12.9455542,22.3297702 Z" id="path-1"></path>
    </defs>
    <g id="Page-1" stroke="none" stroke-width="1" fill="none" fill-rule="evenodd">
        <g id="XL_MainNav-/-Legal-Stuff:-404" transform="translate(-800.000000, -740.000000)">
            <g id="Icons-/-Search" transform="translate(795.000000, 735.000000)">
                <g id="Color/Primary/Dark-Indigo" transform="translate(5.125000, 5.125000)">
                    <mask id="mask-2" fill="white">
                        <use xlink:href="#path-1"></use>
                    </mask>
                    <use id="Mask" fill="#000000" xlink:href="#path-1"></use>
                    <g id="Color-/-Primary-/-Dark-Earthen-Gray" mask="url(#mask-2)" fill="#473D34" stroke="#F5F5F5">
                        <g transform="translate(-5.125000, -5.125000)" id="Dark-Earthen-Gray">
                            <path d="M0.399755501,0.5 L0.399755501,40.5 L40.6002445,40.5 L40.6002445,0.5 L0.399755501,0.5 Z"></path>
                        </g>
                    </g>
                </g>
            </g>
        </g>
    </g>
</svg>