<?xml version="1.0" encoding="UTF-8"?>
<svg width="20px" height="20px" viewBox="0 0 20 20" version="1.1" xmlns="http://www.w3.org/2000/svg" xmlns:xlink="http://www.w3.org/1999/xlink">
    <!-- Generator: Sketch 59.1 (86144) - https://sketch.com -->
    <title>Fill 1</title>
    <desc>Created with Sketch.</desc>
    <g id="Page-1" stroke="none" stroke-width="1" fill="none" fill-rule="evenodd">
        <g id="S_Homepage-Menu-Lvl-1" transform="translate(-342.000000, -27.000000)" fill="#473D34">
            <g id="Menu-Open" transform="translate(-1.000000, 22.000000)">
                <path d="M362.727745,6.54592727 C362.910036,6.37310606 363,6.16004848 363,5.90907879 C363,5.65810909 362.910036,5.44032121 362.727745,5.25804848 C362.554924,5.08522727 362.341867,5 362.090897,5 C361.839927,5 361.622139,5.08522727 361.439867,5.25804848 L352.999867,13.7119879 L344.545927,5.25804848 C344.373106,5.08522727 344.160048,5 343.909079,5 C343.658109,5 343.440321,5.08522727 343.258048,5.25804848 C343.085227,5.44033939 343,5.65813939 343,5.90907879 C343,6.16001818 343.085227,6.37307879 343.258048,6.54592727 L351.711988,14.9998667 L343.258048,23.4398667 C343.085227,23.6221576 343,23.8399576 343,24.090897 C343,24.3418364 343.085227,24.554897 343.258048,24.7277455 C343.440339,24.9100364 343.658139,25 343.909079,25 C344.160018,25 344.373079,24.9100364 344.545927,24.7277455 L352.999867,16.2877455 L361.439867,24.7277455 C361.622158,24.9100364 361.839958,25 362.090897,25 C362.341836,25 362.554897,24.9100364 362.727745,24.7277455 C362.910036,24.5549242 363,24.3418667 363,24.090897 C363,23.8399273 362.910036,23.6221394 362.727745,23.4398667 L354.287745,14.9998667 L362.727745,6.54592727 Z" id="Fill-1"></path>
            </g>
        </g>
    </g>
</svg>