<?xml version="1.0" encoding="UTF-8"?>
<svg width="23px" height="17px" viewBox="0 0 23 17" version="1.1" xmlns="http://www.w3.org/2000/svg" xmlns:xlink="http://www.w3.org/1999/xlink">
    <!-- Generator: Sketch 58 (84663) - https://sketch.com -->
    <title>icon-quote</title>
    <desc>Created with Sketch.</desc>
    <g id="Page-1" stroke="none" stroke-width="1" fill="none" fill-rule="evenodd">
        <g id="icon-quote" fill="#FFE7DD" fill-rule="nonzero">
            <path d="M9.39955165,4.54747351e-13 L9.92196366,2.32547399 C7.54930745,3.03706678 5.95901796,3.99849042 5.1510952,5.20974492 C4.37626655,6.23814352 4.34912718,7.63712284 4.53626737,7.99122154 C4.98506774,8.96501895 6.40819396,9.11760685 7.57643833,9.87822673 C7.93892516,10.1035688 9.75361022,11.094391 9.01988433,14.0037393 C8.19622663,16.7871779 5.29763733,17.0303513 4.12326502,16.8116016 C1.99574546,16.4579716 -0.0214641023,14.257841 0.000172497798,10.5119955 C0.0483231011,7.38992576 1.28410302,4.05512059 4.51002013,1.8751573 C5.7932594,0.980467207 7.42310324,0.355414773 9.39955165,4.54747351e-13 Z" id="Path-2-Copy-2"></path>
            <path d="M22.2786271,4.45865567e-13 L22.8010391,2.32547399 C20.4283829,3.03706678 18.8380934,3.99849042 18.0301706,5.20974492 C17.255342,6.23814352 17.2282026,7.63712284 17.4153428,7.99122154 C17.8641432,8.96501895 19.2872694,9.11760685 20.4555138,9.87822673 C20.8180006,10.1035688 22.6326856,11.094391 21.8989597,14.0037393 C21.0753021,16.7871779 18.1767127,17.0303513 17.0023404,16.8116016 C14.8748209,16.4579716 12.8576113,14.257841 12.8792479,10.5119955 C12.9273985,7.38992576 14.1631784,4.05512059 17.3890956,1.8751573 C18.6723348,0.980467207 20.3021787,0.355414773 22.2786271,4.45865567e-13 Z" id="Path-2-Copy-3"></path>
        </g>
    </g>
</svg>