<?xml version="1.0" encoding="UTF-8"?>
<svg width="45px" height="16px" viewBox="0 0 45 16" version="1.1" xmlns="http://www.w3.org/2000/svg" xmlns:xlink="http://www.w3.org/1999/xlink">
    <!-- Generator: Sketch 58 (84663) - https://sketch.com -->
    <title>icon-font-scale</title>
    <desc>Created with Sketch.</desc>
    <g id="Page-1" stroke="none" stroke-width="1" fill="none" fill-rule="evenodd">
        <g id="Artboard" transform="translate(-76.000000, -32.000000)" fill="#473D34" fill-rule="nonzero">
            <g id="icon-font-scale" transform="translate(76.154857, 32.292000)">
                <path d="M6.104,5.712 L10.122,15.708 L8.218,15.708 L7.28,13.258 L2.772,13.258 L1.82,15.708 L-6.11066753e-13,15.708 L4.018,5.712 L6.104,5.712 Z M5.068,7.504 L5.026,7.504 L3.346,11.816 L6.72,11.816 L5.068,7.504 Z" id="Combined-Shape"></path>
                <path d="M20.336,2.856 L25.502,15.708 L23.054,15.708 L21.848,12.558 L16.052,12.558 L14.828,15.708 L12.488,15.708 L17.654,2.856 L20.336,2.856 Z M19.004,5.16 L18.95,5.16 L16.79,10.704 L21.128,10.704 L19.004,5.16 Z" id="Combined-Shape"></path>
                <path d="M38.1234286,-1.27897692e-12 L44.4374286,15.708 L41.4454286,15.708 L39.9714286,11.858 L32.8874286,11.858 L31.3914286,15.708 L28.5314286,15.708 L34.8454286,-1.27897692e-12 L38.1234286,-1.27897692e-12 Z M36.4954286,2.816 L36.4294286,2.816 L33.7894286,9.592 L39.0914286,9.592 L36.4954286,2.816 Z" id="Combined-Shape"></path>
            </g>
        </g>
    </g>
</svg>