<?xml version="1.0" encoding="utf-8"?>
<!-- Generator: Adobe Illustrator 26.2.1, SVG Export Plug-In . SVG Version: 6.00 Build 0)  -->
<svg version="1.1" id="Layer_1" xmlns="http://www.w3.org/2000/svg" xmlns:xlink="http://www.w3.org/1999/xlink" x="0px" y="0px"
	 width="1266.7px" height="161.1px" viewBox="0 0 1266.7 161.1" style="enable-background:new 0 0 1266.7 161.1;"
	 xml:space="preserve">
<style type="text/css">
	.st0{fill:#FCD6CA;}
	.st1{fill:#2E889B;}
	.st2{fill:#FFC908;}
	.st3{enable-background:new    ;}
</style>
<g id="Logos">
	<polygon class="st0" points="123,157.4 0,157.4 0,1.2 123,1.2 123,157.4 	"/>
	<polygon class="st1" points="0,1.2 0,140.2 123,1.2 0,1.2 	"/>
	<polygon class="st2" points="56.8,76 123,157.4 0,157.4 0,140.2 56.8,76 	"/>
	<polygon class="st1" points="176.9,2.4 268.5,2.4 268.5,18.1 194.2,18.1 194.2,75.2 261.7,75.2 261.7,91 194.2,91 194.2,158.6 
		176.9,158.6 176.9,2.4 	"/>
	<path class="st1" d="M354.9,68c-3.2-0.6-6.5-0.9-9.7-0.8c-18,0-34.5,13.1-34.5,39.6v51.7H292V53.6h18v24.8
		c4.9-17.3,19.4-27.1,36-27.1c3,0,5.9,0.2,8.8,0.8L354.9,68L354.9,68z"/>
	<path class="st1" d="M434.2,117.3v-9.4l-28.6,3.1c-13.1,1.9-24,5.2-24,19.4c0,9.8,6.9,17.3,20,17.3
		C417.9,147.7,434.1,137.5,434.2,117.3L434.2,117.3z M434.6,140.8c-4.6,12.3-19,20-36.5,20c-18.4,0-34-10.6-34-30
		c0-20.2,15-29,36.3-31.5l33.8-4.4v-6c0-16.7-10.2-23.8-24.6-23.8c-14,0-22.7,7.3-24,19.4h-16.7c2.1-21.3,18.8-33.4,41.1-33.4
		c25.4,0,41.3,12.1,41.3,37.3v48.2c0,7.7,0.4,15,2.5,21.9h-17.3C435.3,152.7,434.7,146.8,434.6,140.8L434.6,140.8z"/>
	<path class="st1" d="M604.3,51.1c24.2,0,36.1,15.2,36.1,39.8v67.6h-17.5V94.7c0-19.6-7.1-29.4-22.7-29.4s-27.5,11.3-27.5,35.4v57.8
		h-17.5V94.7c0-19.6-6.9-29.4-22.7-29.4s-27.7,11.3-27.7,35.4v57.8h-17.3V53.6H504v19.2c5-13.4,18-21.7,33.2-21.7
		c17.7,0,27.3,8.5,31.9,22.5C575.3,59.8,589.1,50.9,604.3,51.1L604.3,51.1z"/>
	<path class="st1" d="M686.1,97.2h60.1c-0.4-18.2-9.4-32.1-28.2-32.1C701.5,65.1,689,75.8,686.1,97.2z M719,161
		c-29.6,0-50.5-20.6-50.5-54.4c0-34.2,21.5-55.5,49.4-55.5c31.1,0,45,24.8,45,51.7v6.9h-77.5c0.8,24.2,13.5,37.6,33.5,37.6
		c14.2,0,22.7-6.9,27.1-19.6h16.3C757.5,150,739.3,161.1,719,161L719,161z"/>
	<polygon class="st1" points="885.2,139.8 885.6,139.8 909.8,53.6 926.5,53.6 894.8,158.5 876.9,158.5 852.7,73.7 852,73.7 
		828.3,158.5 810.1,158.5 778.4,53.6 795.5,53.6 819.9,139.8 820.5,139.8 843.9,53.6 861.4,53.6 885.2,139.8 	"/>
	<path class="st1" d="M990.5,147.1c20.4,0,32.7-15.6,32.7-40.9s-12.2-41.1-32.7-41.1s-32.8,15.8-32.8,41.1S970.1,147.1,990.5,147.1z
		 M990.5,161.1c-29,0-49.8-21.1-49.8-54.8s20.9-55.1,49.8-55.1s49.8,21.3,49.8,55.1S1019.5,161.1,990.5,161.1z"/>
	<path class="st1" d="M1128,68c-3-0.6-6-0.9-9-0.8c-16.7,0-31.9,13.1-31.9,39.6v51.7h-17.3V53.6h16.7v24.8
		c4.6-17.3,17.9-27.1,33.4-27.1c2.7,0,5.5,0.2,8.1,0.8L1128,68L1128,68z"/>
	<polygon class="st1" points="1180.9,109.1 1167.3,122.3 1167.3,158.5 1150,158.5 1150,5 1167.3,5 1167.3,103.9 1219,53.6 
		1239.7,53.6 1193.4,98.1 1241.6,158.5 1220.7,158.5 1180.9,109.1 	"/>
	<g class="st3">
		<path class="st1" d="M140.6,5.1c0,2.9-2.3,5.1-5.2,5.1c-2.9,0-5.2-2.3-5.2-5.1c0-2.8,2.3-5,5.2-5C138.3,0,140.6,2.3,140.6,5.1z
			 M131.6,5.1c0,2.2,1.6,3.9,3.8,3.9c2.2,0,3.7-1.7,3.7-3.9s-1.6-3.9-3.7-3.9C133.2,1.2,131.6,2.9,131.6,5.1z M134.7,7.6h-1.3V2.8
			c0.4-0.1,1.1-0.2,2-0.2c1,0,1.5,0.2,1.8,0.4s0.5,0.6,0.5,1c0,0.5-0.5,0.9-1.1,1.1v0.1c0.5,0.2,0.8,0.6,0.9,1.2
			c0.2,0.7,0.3,1,0.4,1.2h-1.5c-0.2-0.2-0.2-0.6-0.4-1.1c-0.1-0.5-0.4-0.7-0.9-0.7h-0.5V7.6z M134.7,4.8h0.5c0.6,0,1-0.2,1-0.6
			s-0.3-0.7-0.9-0.7c-0.2,0-0.4,0-0.6,0V4.8z"/>
	</g>
	<g>
		<path class="st1" d="M1253.2,1.6h-2.5V0.7h6v0.9h-2.5v7.2h-1.1V1.6z"/>
		<path class="st1" d="M1264.4,5.2c-0.1-1.1-0.1-2.5-0.1-3.5h0c-0.3,0.9-0.6,2-1,3.1l-1.4,3.9h-0.8l-1.3-3.9
			c-0.4-1.1-0.7-2.2-0.9-3.1h0c0,1-0.1,2.4-0.2,3.6l-0.2,3.5h-1l0.6-8.1h1.3l1.4,3.9c0.3,1,0.6,1.9,0.8,2.7h0
			c0.2-0.8,0.5-1.7,0.9-2.7l1.4-3.9h1.3l0.5,8.1h-1L1264.4,5.2z"/>
	</g>
</g>
</svg>
