<?xml version="1.0" encoding="UTF-8"?>
<svg width="19px" height="18px" viewBox="0 0 19 18" version="1.1" xmlns="http://www.w3.org/2000/svg" xmlns:xlink="http://www.w3.org/1999/xlink">
    <!-- Generator: Sketch 59.1 (86144) - https://sketch.com -->
    <title>S_Nav_Search</title>
    <desc>Created with Sketch.</desc>
    <defs>
        <path d="M17.4811354,15.721585 L13.8151354,12.055585 C13.7887679,12.0292175 13.7584954,12.0096875 13.7301754,11.98625 C15.8571254,9.02525 15.5973754,4.88075 12.9352504,2.21875 C11.4557504,0.73925 9.51625038,0 7.57775038,0 C5.63830038,0 3.69975038,0.73925 2.21925038,2.21875 C-0.739750125,5.17775 -0.739750125,9.9755 2.21925038,12.9345 C3.69875038,14.414 5.63825038,15.15325 7.57775038,15.15325 C9.25547538,15.15325 10.9312504,14.5966 12.3112504,13.490175 C12.3219929,13.5018925 12.3307804,13.515565 12.3425004,13.527285 L16.0085004,17.193285 C16.2106479,17.3983625 16.4772504,17.499935 16.7438504,17.499935 C17.0104504,17.499935 17.2770504,17.3983725 17.4801754,17.195235 C17.8874004,16.78801 17.8874004,16.12786 17.4811504,15.72161 L17.4811354,15.721585 Z M7.57788538,13.071085 C6.11011038,13.071085 4.73113538,12.499785 3.69313538,11.46171 C1.55153538,9.32011 1.55153538,5.83371 3.69313538,3.69221 C4.73023538,2.65511 6.11111038,2.082835 7.57788538,2.082835 C9.04566038,2.082835 10.4246354,2.654135 11.4626354,3.69221 C13.6042354,5.83381 13.6042354,9.32021 11.4626354,11.46171 C10.4245604,12.499785 9.04466038,13.071085 7.57788538,13.071085 Z" id="path-1"></path>
    </defs>
    <g id="Symbols" stroke="none" stroke-width="1" fill="none" fill-rule="evenodd">
        <g id="S-/-Nav-/-Default" transform="translate(-284.000000, -29.000000)">
            <g id="Nav">
                <g id="S_Nav_Search" transform="translate(281.000000, 26.000000)">
                    <g id="Icons-/-Search" transform="translate(0.266880, 0.097493)">
                        <g id="Color/Primary/Dark-Indigo" transform="translate(3.000000, 3.000000)">
                            <mask id="mask-2" fill="white">
                                <use xlink:href="#path-1"></use>
                            </mask>
                            <use id="Mask" fill="#000000" xlink:href="#path-1"></use>
                            <g id="Color-/-Primary-/-Dark-Earthen-Gray" mask="url(#mask-2)" fill="#473D34" stroke="#F5F5F5">
                                <g transform="translate(-3.000000, -3.000000)" id="Dark-Earthen-Gray">
                                    <path d="M0.441320293,0.5 L0.441320293,23.5 L23.5586797,23.5 L23.5586797,0.5 L0.441320293,0.5 Z"></path>
                                </g>
                            </g>
                        </g>
                    </g>
                </g>
            </g>
        </g>
    </g>
</svg>