<?xml version="1.0" encoding="UTF-8"?>
<svg width="44px" height="43px" viewBox="0 0 44 43" version="1.1" xmlns="http://www.w3.org/2000/svg" xmlns:xlink="http://www.w3.org/1999/xlink">
    <!-- Generator: Sketch 58 (84663) - https://sketch.com -->
    <title>Icons / Search Copy</title>
    <desc>Created with Sketch.</desc>
    <defs>
        <path d="M42.2460772,37.9938304 L33.3865772,29.1343304 C33.3228557,29.070609 33.2496972,29.0234115 33.1812572,28.9667708 C38.3213863,21.8110208 37.6936572,11.7951458 31.2601884,5.36197917 C27.6847301,1.78652083 22.9976051,0 18.3128967,0 C13.6258926,0 8.94106341,1.78652083 5.36318841,5.36197917 C-1.78772947,12.5128958 -1.78772947,24.1074583 5.36318841,31.258375 C8.93864674,34.8338333 13.6257717,36.6203542 18.3128967,36.6203542 C22.3673988,36.6203542 26.4171884,35.2751167 29.7521884,32.6012562 C29.7781494,32.6295735 29.7993859,32.6626154 29.8277092,32.6909387 L38.6872092,41.5504387 C39.1757324,42.0460427 39.8200217,42.2915096 40.4643051,42.2915096 C41.1085884,42.2915096 41.7528717,42.0460669 42.2437572,41.5551512 C43.2278842,40.5710242 43.2278842,38.9756617 42.2461134,37.9938908 L42.2460772,37.9938304 Z M18.313223,31.5884554 C14.7661001,31.5884554 11.4335772,30.2078138 8.92507716,27.6991325 C3.74954382,22.5235992 3.74954382,14.0981325 8.92507716,8.92284083 C11.4314022,6.41651583 14.7685167,5.03351792 18.313223,5.03351792 C21.8603459,5.03351792 25.1928688,6.41415958 27.7013688,8.92284083 C32.8769022,14.0983742 32.8769022,22.5238408 27.7013688,27.6991325 C25.1926876,30.2078138 21.8579292,31.5884554 18.313223,31.5884554 Z" id="path-1"></path>
    </defs>
    <g id="Page-1" stroke="none" stroke-width="1" fill="none" fill-rule="evenodd">
        <g id="XL_Homepage-Search" transform="translate(-150.000000, -89.000000)">
            <g id="Search" transform="translate(0.000000, 46.000000)">
                <g id="Icons-/-Search" transform="translate(143.000000, 36.000000)">
                    <g id="Color/Primary/Dark-Indigo" transform="translate(7.250000, 7.250000)">
                        <mask id="mask-2" fill="white">
                            <use xlink:href="#path-1"></use>
                        </mask>
                        <use id="Mask" fill="#000000" xlink:href="#path-1"></use>
                        <g id="Color-/-Primary-/-Dark-Earthen-Gray" mask="url(#mask-2)" fill="#473D34" stroke="#F5F5F5">
                            <g transform="translate(-7.250000, -7.250000)" id="Dark-Earthen-Gray">
                                <path d="M0.358190709,0.5 L0.358190709,57.5 L57.6418093,57.5 L57.6418093,0.5 L0.358190709,0.5 Z"></path>
                            </g>
                        </g>
                    </g>
                </g>
            </g>
        </g>
    </g>
</svg>